<svg width="20" height="20" viewBox="0 0 20 20" fill="none" xmlns="http://www.w3.org/2000/svg">
<path d="M10 20C9.68519 20 9.4213 19.8935 9.20833 19.6806C8.99537 19.4676 8.88889 19.2037 8.88889 18.8889V11.1111H1.11111C0.796296 11.1111 0.532407 11.0046 0.319444 10.7917C0.106481 10.5787 0 10.3148 0 10C0 9.68519 0.106481 9.4213 0.319444 9.20833C0.532407 8.99537 0.796296 8.88889 1.11111 8.88889H8.88889V1.11111C8.88889 0.796296 8.99537 0.532407 9.20833 0.319444C9.4213 0.106481 9.68519 0 10 0C10.3148 0 10.5787 0.106481 10.7917 0.319444C11.0046 0.532407 11.1111 0.796296 11.1111 1.11111V8.88889H18.8889C19.2037 8.88889 19.4676 8.99537 19.6806 9.20833C19.8935 9.4213 20 9.68519 20 10C20 10.3148 19.8935 10.5787 19.6806 10.7917C19.4676 11.0046 19.2037 11.1111 18.8889 11.1111H11.1111V18.8889C11.1111 19.2037 11.0046 19.4676 10.7917 19.6806C10.5787 19.8935 10.3148 20 10 20Z" fill="#25416F"/>
</svg>
